<?xml version="1.0" encoding="utf-8"?>
<!-- Generator: Adobe Illustrator 19.0.1, SVG Export Plug-In . SVG Version: 6.00 Build 0)  -->
<svg version="1.1" id="Natural_Cycles_Mark" xmlns="http://www.w3.org/2000/svg" xmlns:xlink="http://www.w3.org/1999/xlink"
	 x="0px" y="0px" viewBox="0 0 300 300" style="enable-background:new 0 0 300 300;fill: #bc008e;" xml:space="preserve">
<path d="M90.4556427,130.903717c0,18.4471741,0,83.8661804,0,83.8661804c0,6.0470886,5.0203018,7.2975006,11.2075424,7.2975006
	c6.1872482,0,11.2075424-1.250412,11.2075424-7.2975006c0,0,0-54.4029694,0-66.7585144
	C112.8707275,124.8209839,90.4556427,113.2257919,90.4556427,130.903717z M150.3249969,8.5601215
	c-25.4001312,0-50.3012924,6.9143496-71.9947739,19.9945889c-3.7304153,2.2572613-2.858696,5.8569984-0.6014404,9.5993042
	c2.2453842,3.7304192,5.0090485,6.1896477,8.7751083,3.9442673c19.2223663-11.5951996,41.2960129-17.7135658,63.821106-17.7135658
	c68.7633209,0,124.0876007,56.4790688,124.0876007,125.9076843s-55.3242798,125.9076996-124.0876007,125.9076996
	S26.2374134,219.7210236,26.2374134,150.2924042c0-29.380043,15.7519855-54.031189,39.2383041-61.1836777
	c19.5462723-5.9525833,38.0363541,0.0650864,51.7016373,17.1084137
	c19.1082611,23.8317947,61.8793793,103.7012405,71.9632111,113.7850723
	c4.2059631,4.2059631,20.3603363,1.9523163,20.3603363-5.6377106V85.8149109c0-6.0470886-4.9065704-7.2989807-10.9536591-7.2989807
	s-10.9536591,1.2518921-10.9536591,7.2989807v89.8627472c0,0-26.3163757-46.910614-45.7910004-75.1374283
	c-6.8136139-9.8757401-15.5651779-21.6590347-30.4393158-28.7166061
	c-15.4032974-7.3086548-35.343277-6.6046829-51.8633537-0.5947876
	C28.1067734,82.6494598,9.1961985,112.6555328,9.1961985,150.2924042c0,78.1487885,63.6453171,141.7322845,141.1287994,141.7322845
	s141.1287994-63.5834961,141.1287994-141.7322845S227.8084869,8.5601215,150.3249969,8.5601215z"/>
</svg>
